<svg width="142" height="55" viewBox="0 0 142 55" fill="none" xmlns="http://www.w3.org/2000/svg">
<path d="M74.4147 15.686C71.303 13.1901 67.1565 11.6237 61.9049 11.6237C50.8116 11.6237 41.8138 21.2232 41.8138 33.061C41.8138 44.8988 50.8116 54.51 61.9049 54.51C67.1658 54.51 71.303 52.9459 74.4147 50.4478V53.7257H85.2012V12.3823H74.4147V15.686ZM63.5298 44.578C57.4915 44.578 52.6028 39.4271 52.6028 33.0634C52.6028 26.6996 57.4915 21.558 63.5298 21.558C66.5824 21.558 69.5101 22.7707 71.6686 24.9292C73.8272 27.0878 75.0398 30.0153 75.0398 33.0681C75.0398 36.1207 73.8272 39.0482 71.6686 41.2068C69.5101 43.3653 66.5824 44.578 63.5298 44.578ZM128.282 53.735H139.068V20.5606H128.282V53.735ZM126.174 9.87943C126.174 11.8684 126.965 13.7759 128.371 15.1822C129.777 16.5886 131.685 17.3787 133.673 17.3787C135.663 17.3787 137.57 16.5886 138.977 15.1822C140.383 13.7759 141.174 11.8684 141.174 9.87943C141.174 4.14082 136.51 0.13948 129.759 0.00368273C121.916 -0.143821 112.021 4.11506 107.591 17.2125V12.3823H96.8119V53.735H107.594V29.6965C107.594 14.2132 116.428 1.64262 129.693 1.77607C130.925 1.79652 132.145 1.9993 133.315 2.3778C131.39 2.47221 129.575 3.3039 128.245 4.70051C126.917 6.0971 126.175 7.95152 126.177 9.87943H126.174ZM42.9097 12.3823H27.6746L10.7865 28.4017V0.467267H0V53.735H10.7865V38.6755L27.6746 53.735H42.8254L20.6341 33.1032L42.9097 12.3823Z" fill="white"/>
<path d="M21.9374 4.64193H24.5433V3.45487H21.9374V1.65439H24.8476V0.467333H20.666V7.70205H24.9577V6.515H21.9374V4.64193ZM30.0853 6.62738C28.6079 6.62738 27.5847 5.59485 27.5847 4.08468C27.5847 2.51366 28.5961 1.542 29.9401 1.542C30.524 1.52529 31.0981 1.69505 31.579 2.02666L32.148 1.09013C31.5267 0.586745 30.7437 0.3263 29.9448 0.35729C27.5566 0.35729 26.2431 2.01028 26.2431 4.08937C26.2431 6.34408 27.765 7.82146 29.9752 7.82146C30.9118 7.82146 31.8483 7.49132 32.2931 7.00433L31.8061 6.05375C31.3117 6.42997 30.7066 6.63169 30.0853 6.62738ZM35.0021 1.91428C34.6813 6.27618 33.9462 6.515 33.3888 6.44241L33.3584 7.70205C34.7843 7.91043 35.7255 7.23378 36.1493 3.01939L36.2945 1.65439H38.4017V7.70205H39.6637V0.467333H35.1004L35.0021 1.91428ZM43.1101 5.61826V0.467333H41.8364V7.70205H42.9532L46.7416 2.57453V7.70205H48.0129V0.467333H46.8961L43.1101 5.61826ZM57.1066 0.35729C54.8846 0.35729 53.3441 1.99623 53.3441 4.08937C53.3441 6.34408 54.9572 7.82146 57.1066 7.82146C59.256 7.82146 60.8809 6.25979 60.8809 4.08937C60.8738 1.82999 59.2513 0.352608 57.0995 0.352608L57.1066 0.35729ZM57.1066 6.63206C55.7533 6.63206 54.688 5.53632 54.688 4.08937C54.688 2.59093 55.7228 1.54668 57.1066 1.54668C58.4904 1.54668 59.5369 2.59093 59.5369 4.08937C59.5299 5.51056 58.6191 6.62738 57.0995 6.62738L57.1066 6.63206ZM64.7511 3.20669C64.4262 3.20779 64.1019 3.22812 63.7794 3.26756V1.65439H66.7366V0.467333H62.508V7.70205C62.9319 7.70205 63.5523 7.74419 64.3812 7.74419C66.1582 7.74419 67.172 6.88726 67.172 5.38647C67.1814 4.05425 66.2612 3.20669 64.7511 3.20669ZM64.5848 6.5548C64.3179 6.5548 64.0698 6.53606 63.7794 6.515V4.44759C64.0674 4.40912 64.3575 4.38878 64.648 4.38672C65.5377 4.38672 65.9193 4.85499 65.9193 5.47075C65.9193 6.08653 65.526 6.5548 64.5848 6.5548ZM71.8945 4.68173L69.4548 0.467333H67.9282L71.2179 5.95542L70.3351 7.72546H71.6885L75.3081 0.467333H73.9525L71.8945 4.68173ZM79.8246 3.88568V3.86461C80.1437 3.72969 80.4139 3.50035 80.5989 3.20738C80.784 2.91439 80.8749 2.57182 80.8595 2.22567C80.8595 1.22358 80.2086 0.436895 78.4807 0.436895C77.7571 0.436895 76.7973 0.469674 76.3922 0.488405V7.69268C76.8159 7.72311 77.7478 7.74419 78.4081 7.74419C79.9393 7.74419 81.0983 7.06286 81.0983 5.57377C81.1237 5.18668 81.0091 4.80334 80.7753 4.49381C80.5413 4.1843 80.2039 3.96927 79.8246 3.88801V3.88568ZM77.6635 1.65205C77.8976 1.63097 78.1716 1.6216 78.4619 1.6216C79.1432 1.6216 79.5975 1.93301 79.5975 2.52068C79.5975 3.18328 79.1128 3.48297 78.5228 3.48297H77.6635V1.65205ZM78.5017 6.5548C78.2215 6.55416 77.9417 6.53696 77.6635 6.50328V4.59041H78.5649C79.3609 4.59041 79.8246 4.90182 79.8246 5.51056C79.8246 6.19424 79.3609 6.5548 78.5017 6.5548ZM85.0364 2.8953C84.7601 2.89627 84.4841 2.91347 84.2099 2.9468V0.467333H82.9363V7.70205C83.3623 7.70205 84.0741 7.72311 84.7672 7.72311C86.6917 7.72311 87.7664 6.76317 87.7664 5.23195C87.7664 3.81544 86.9071 2.8953 85.0364 2.8953ZM84.9123 6.53606C84.6641 6.53606 84.444 6.515 84.2099 6.50328V4.1362C84.4979 4.10577 84.7461 4.08468 84.9334 4.08468C85.8231 4.08468 86.4224 4.44759 86.4224 5.25535C86.4248 6.15209 85.8418 6.53606 84.9123 6.53606ZM89.4686 6.28789C89.365 6.27732 89.2604 6.28923 89.1618 6.32279C89.0634 6.35635 88.9732 6.41077 88.8977 6.48233C88.8222 6.5539 88.7629 6.64093 88.7241 6.73748C88.6851 6.83403 88.6675 6.93783 88.6724 7.04179C88.6584 7.1985 88.7054 7.3546 88.8035 7.47759C88.9016 7.60057 89.0434 7.68098 89.1993 7.70205C89.2835 7.70205 89.4076 7.70205 89.4686 7.62011C89.4949 7.78208 89.4625 7.94815 89.3772 8.08837C89.3184 8.22036 89.2312 8.33784 89.1219 8.43251C89.0127 8.52717 88.8841 8.59671 88.745 8.63624L89.0658 9.19582C89.4533 9.09785 89.7952 8.86966 90.0343 8.54952C90.2735 8.22938 90.3953 7.83676 90.3794 7.43747C90.3816 6.77254 90.0305 6.28789 89.4686 6.28789ZM93.5004 1.65439H95.8416V7.70205H97.113V1.65439H99.4543V0.467333H93.5026L93.5004 1.65439ZM103.634 0.352608C101.412 0.352608 99.8711 1.99154 99.8711 4.08468C99.8711 6.33939 101.484 7.81677 103.634 7.81677C105.783 7.81677 107.408 6.25511 107.408 4.08468C107.41 1.82999 105.785 0.352608 103.636 0.352608H103.634ZM103.634 6.62738C102.278 6.62738 101.215 5.53164 101.215 4.08468C101.215 2.58624 102.248 1.542 103.634 1.542C105.02 1.542 106.064 2.58624 106.064 4.08468C106.066 5.51056 105.155 6.62738 103.636 6.62738H103.634Z" fill="white"/>
</svg>
